<?xml version="1.0" encoding="UTF-8"?>
<svg xmlns="http://www.w3.org/2000/svg" viewBox="0 0 400 300">
    <rect width="400" height="300" fill="#0A1931"/>
    <g fill="#FFE5B4">
        <rect x="20" y="10" width="2" height="2"/>
        <rect x="50" y="15" width="2" height="2"/>
        <rect x="80" y="25" width="2" height="2"/>
        <rect x="120" y="8" width="2" height="2"/>
        <rect x="180" y="20" width="2" height="2"/>
        <rect x="220" y="12" width="2" height="2"/>
        <rect x="260" y="18" width="2" height="2"/>
        <rect x="300" y="25" width="2" height="2"/>
        <rect x="340" y="15" width="2" height="2"/>
        <rect x="380" y="10" width="2" height="2"/>
        <rect x="30" y="40" width="2" height="2"/>
        <rect x="90" y="35" width="2" height="2"/>
        <rect x="150" y="45" width="2" height="2"/>
        <rect x="210" y="38" width="2" height="2"/>
        <rect x="270" y="42" width="2" height="2"/>
        <rect x="330" y="48" width="2" height="2"/>
    </g>
    <circle cx="350" cy="50" r="20" fill="#FFF4D6"/>
    <circle cx="345" cy="45" r="5" fill="#FFE5B4"/>
    <path d="M0 200 L50 180 L100 190 L150 170 L200 185 L250 165 L300 180 L350 160 L400 180 L400 300 L0 300 Z" fill="#D4A76A"/>
    <path d="M0 220 L50 200 L100 210 L150 190 L200 205 L250 185 L300 200 L350 180 L400 200 L400 300 L0 300 Z" fill="#C69C6D"/>
    <path d="M0 240 L50 220 L100 230 L150 210 L200 225 L250 205 L300 220 L350 200 L400 220 L400 300 L0 300 Z" fill="#B38B62"/>
    <g transform="translate(250,150) scale(0.8)">
        <rect x="10" y="20" width="40" height="50" fill="#E8C39E"/>
        <rect x="20" y="0" width="20" height="20" fill="#D4B08C"/>
        <circle cx="30" cy="10" r="8" fill="#C69C6D"/>
        <rect x="5" y="10" width="10" height="40" fill="#E8C39E"/>
        <rect x="45" y="10" width="10" height="40" fill="#E8C39E"/>
        <rect x="15" y="30" width="8" height="8" fill="#2B1810"/>
        <rect x="35" y="30" width="8" height="8" fill="#2B1810"/>
    </g>
    <g transform="translate(100,200)">
        <rect x="0" y="0" width="12" height="20" fill="#FFFFFF"/>
        <rect x="2" y="-10" width="8" height="10" fill="#FFFFFF"/>
        <rect x="0" y="-12" width="12" height="4" fill="#B31312"/>
    </g>
    <g transform="translate(260,160)">
        <rect x="0" y="0" width="10" height="15" fill="#D4B08C"/>
        <rect x="15" y="5" width="10" height="10" fill="#E8C39E"/>
        <rect x="30" y="0" width="10" height="12" fill="#D4B08C"/>
    </g>
</svg>